# xmcd
#
# Track frame offsets:
#	150
#	30352
#	57033
#	81185
#	104138
#	121827
#	143307
#	168872
#	191502
#	220445
#	245512
#	261725
#	290107
#
# Disc length: 4202 seconds
#
# Revision: 2
# Processed by: cddbd v1.5.2PL0 Copyright (c) Steve Scherf et al.
# Submitted via: EasyCDDAExtractor 15.1.0.1
#
DISCID=be10680d
DTITLE=Damares - Apocalipse
DYEAR=2008
DGENRE=Gospel
TTITLE0=Apocalipse
TTITLE1=Milagre
TTITLE2=Sabor De Mel
TTITLE3=A Batalha Do Arcanjo
TTITLE4=Nao Toque No Ungido
TTITLE5=Escondido Nele
TTITLE6=Quando Ele Quer
TTITLE7=Glorifica
TTITLE8=Casa De Deus
TTITLE9=Preciso Do Teu Espirito
TTITLE10=Aqui Tem Uncao
TTITLE11=Deixa Senhor
TTITLE12=Pra Te Adorar
EXTD=
EXTT0=
EXTT1=
EXTT2=
EXTT3=
EXTT4=
EXTT5=
EXTT6=
EXTT7=
EXTT8=
EXTT9=
EXTT10=
EXTT11=
EXTT12=
PLAYORDER=
